<svg width="97" height="20" viewBox="0 0 97 20" fill="none" xmlns="http://www.w3.org/2000/svg">
<path fill-rule="evenodd" clip-rule="evenodd" d="M0.000319898 19.3155V2.03628C-0.00443469 1.77148 0.0438532 1.5084 0.142333 1.26258C0.240813 1.01677 0.38749 0.793189 0.573704 0.60505C0.754879 0.414823 0.973492 0.264274 1.21574 0.162913C1.45798 0.0615517 1.71859 0.0115815 1.9811 0.0161573H3.90976V7.19469H11.7286V0.0161573H15.6902V19.3155H11.7286V10.7281H3.90976V19.3155H0.000319898Z" fill="#BE1128"/>
<path fill-rule="evenodd" clip-rule="evenodd" d="M17.6412 19.3157V2.0365C17.6403 1.77094 17.6918 1.5078 17.7929 1.26226C17.8939 1.01673 18.0425 0.793638 18.2301 0.605855C18.4177 0.418073 18.6406 0.269309 18.8858 0.168137C19.1311 0.0669655 19.394 0.0153859 19.6593 0.0163713H24.574C27.5228 0.0163713 29.727 0.801562 31.1865 2.37194C32.6758 4.0119 33.3684 6.44947 33.3684 9.66229C33.4038 11.2476 33.1515 12.8262 32.6237 14.3213C32.1349 15.591 31.3239 16.7112 30.2706 17.5714C29.4622 18.1892 28.5379 18.6379 27.5526 18.8908C26.213 19.2005 24.8386 19.3334 23.4645 19.2859L17.6412 19.3157ZM21.506 15.8345H24.0304C25.8622 15.8345 27.2026 15.35 28.0664 14.3436C28.9302 13.3373 29.2951 11.8762 29.2951 9.63247C29.2951 7.38872 28.9079 5.9053 28.1185 4.8617C27.6873 4.34078 27.1358 3.93283 26.5117 3.67307C25.8877 3.41332 25.2098 3.30958 24.5368 3.37083H21.506V15.8345Z" fill="#BE1128"/>
<path fill-rule="evenodd" clip-rule="evenodd" d="M35.267 19.3156V2.03639C35.2619 1.77088 35.3108 1.50712 35.4106 1.26109C35.5105 1.01506 35.6592 0.791903 35.8478 0.605155C36.0318 0.414513 36.253 0.26384 36.4977 0.162525C36.7424 0.0612091 37.0053 0.0114215 37.2701 0.0162624H44.2773C45.8767 -0.0918409 47.466 0.341341 48.7899 1.24623C49.3058 1.69849 49.714 2.26061 49.9846 2.89136C50.2552 3.52211 50.3813 4.2055 50.3537 4.8914C50.3801 5.75768 50.1662 6.61433 49.7356 7.36625C49.3047 8.01018 48.7077 8.52536 48.008 8.85711C48.9036 9.20969 49.6791 9.8126 50.242 10.594C50.7678 11.4341 51.0274 12.4137 50.9866 13.4043C51.0326 14.2183 50.8974 15.0324 50.5909 15.7878C50.2844 16.5432 49.8143 17.2211 49.2144 17.7725C47.7057 18.867 45.8603 19.3948 44.0018 19.2634L35.267 19.3156ZM39.0498 7.47806H43.5624C44.3038 7.53235 45.0434 7.35245 45.6772 6.96371C45.9049 6.77336 46.0838 6.5313 46.1991 6.25771C46.3144 5.98412 46.3627 5.68691 46.34 5.39084C46.3627 5.09587 46.3144 4.79974 46.199 4.52734C46.0837 4.25495 45.9048 4.01424 45.6772 3.82543C45.0176 3.45038 44.2573 3.29138 43.5028 3.37072H39.0349L39.0498 7.47806ZM39.0498 15.8344H43.7262C44.5685 15.8883 45.406 15.6715 46.1166 15.2157C46.3871 14.9828 46.5965 14.687 46.7263 14.3543C46.8561 14.0216 46.9025 13.6621 46.8612 13.3074C46.898 12.9451 46.8498 12.5793 46.7206 12.2389C46.5913 11.8986 46.3845 11.5932 46.1166 11.3469C45.3826 10.9047 44.5276 10.7064 43.6741 10.7803H39.0498V15.8344Z" fill="white"/>
<path fill-rule="evenodd" clip-rule="evenodd" d="M81.2346 19.3156H79.2464C78.9899 19.3262 78.7341 19.284 78.4945 19.1917C78.255 19.0994 78.037 18.9589 77.8539 18.7789C77.6726 18.6009 77.5305 18.387 77.4369 18.1507C77.3433 17.9145 77.3001 17.6612 77.3103 17.4073V9.39384C77.3422 9.02402 77.2845 8.65194 77.1418 8.30929C76.9992 7.96664 76.776 7.66357 76.4911 7.42589C75.9596 7.02406 75.3104 6.80918 74.6444 6.81463C73.9867 6.80427 73.3454 7.02003 72.8274 7.42589C72.5486 7.66743 72.331 7.97176 72.1924 8.31387C72.0539 8.65598 71.9985 9.0261 72.0307 9.39384V19.3156H68.0542V10.1765C68.0542 7.6371 68.7269 5.93502 70.0722 5.07032C71.4114 4.21559 72.9532 3.73199 74.5401 3.6689C76.1633 3.65779 77.7564 4.10753 79.1347 4.96596C80.5346 5.82321 81.2421 7.56007 81.2421 10.184L81.2346 19.3156Z" fill="white"/>
<path fill-rule="evenodd" clip-rule="evenodd" d="M64.3979 4.72728C63.3032 3.98184 61.6575 3.65385 59.4683 3.65385C57.857 3.54904 56.2593 4.00749 54.9482 4.95091C54.4971 5.2991 54.1194 5.73332 53.837 6.22847C53.5545 6.72363 53.3729 7.2699 53.3025 7.83574H57.2343C57.3224 7.63233 57.452 7.44963 57.6149 7.29942C57.7778 7.14921 57.9703 7.03481 58.18 6.96358C58.6602 6.80522 59.1638 6.7296 59.6693 6.73995C60.2343 6.74724 60.7956 6.83253 61.3373 6.9934C61.5984 7.03337 61.8357 7.1677 62.0045 7.37099C62.1733 7.57428 62.2618 7.83244 62.2533 8.09664C62.2533 8.84207 61.3895 9.33406 59.6693 9.58751C59.3541 9.61708 59.0409 9.66436 58.731 9.72914C58.486 9.77992 58.2366 9.80737 57.9864 9.81114C56.6884 9.97891 55.4471 10.4459 54.3599 11.1753C53.3695 11.8536 52.8706 12.9792 52.8706 14.567C52.8706 16.1548 53.3993 17.4742 54.4567 18.2122C55.5523 18.96 56.8543 19.3457 58.18 19.3154C59.7838 19.4319 61.3854 19.0603 62.7745 18.2495C62.8501 18.4658 62.9664 18.6657 63.1171 18.8384C63.2713 19.0104 63.4611 19.1469 63.6732 19.2383C63.8854 19.3297 64.1149 19.3738 64.3457 19.3676H66.1031V7.89537C66.1238 7.26358 65.9769 6.63759 65.6773 6.0811C65.3778 5.52461 64.9363 5.05749 64.3979 4.72728ZM62.2831 12.8674C62.3082 13.3249 62.2377 13.7826 62.0762 14.2113C61.9146 14.64 61.6655 15.0303 61.3448 15.3572C60.9946 15.6704 60.5861 15.9113 60.1427 16.0661C59.6992 16.2209 59.2296 16.2865 58.7608 16.2591C58.2277 16.2863 57.7016 16.1283 57.2715 15.8119C57.0944 15.6347 56.956 15.4226 56.865 15.1891C56.774 14.9555 56.7324 14.7056 56.7428 14.4552C56.7543 14.0078 56.8995 13.5742 57.1598 13.2103C57.6 12.8404 58.1242 12.5844 58.6864 12.4649L59.997 12.1816C60.7832 12.0148 61.5495 11.7649 62.2831 11.4362V12.8674Z" fill="white"/>
<path fill-rule="evenodd" clip-rule="evenodd" d="M87.0431 4.39193V9.60997L91.7344 3.6465H96.3736L91.1611 10.0945L96.4556 19.3006H91.8164L89.1207 14.2466C88.5622 13.2402 88.0856 12.8079 87.6761 12.957C87.2665 13.1061 87.0729 13.3371 87.0729 13.6279V19.3006H83.1783V0.0162354H85.1666C85.6574 0.021832 86.127 0.217484 86.4769 0.562151C86.8267 0.906818 87.0297 1.37372 87.0431 1.86491V4.39193Z" fill="white"/>
<path fill-rule="evenodd" clip-rule="evenodd" d="M35.267 19.3156V2.03639C35.2619 1.77088 35.3108 1.50712 35.4106 1.26109C35.5105 1.01506 35.6592 0.791903 35.8478 0.605155C36.0318 0.414513 36.253 0.26384 36.4977 0.162525C36.7424 0.0612091 37.0053 0.0114215 37.2701 0.0162624H44.2773C45.8767 -0.0918409 47.466 0.341342 48.7899 1.24623C49.3058 1.69849 49.714 2.26061 49.9846 2.89136C50.2552 3.52212 50.3813 4.2055 50.3537 4.8914C50.3801 5.75768 50.1662 6.61434 49.7356 7.36625C49.3047 8.01018 48.7077 8.52536 48.008 8.85712C48.9036 9.2097 49.6791 9.8126 50.242 10.594C50.7678 11.4341 51.0274 12.4137 50.9866 13.4043C51.0326 14.2183 50.8974 15.0324 50.5909 15.7878C50.2844 16.5432 49.8143 17.2211 49.2144 17.7725C47.7057 18.867 45.8603 19.3948 44.0018 19.2634L35.267 19.3156ZM39.0498 7.47806H43.5624C44.3038 7.53235 45.0434 7.35245 45.6772 6.96371C45.9049 6.77336 46.0838 6.5313 46.1991 6.25771C46.3144 5.98412 46.3627 5.68691 46.34 5.39084C46.3627 5.09587 46.3144 4.79974 46.1991 4.52735C46.0837 4.25495 45.9048 4.01424 45.6772 3.82543C45.0176 3.45038 44.2573 3.29138 43.5028 3.37072H39.0349L39.0498 7.47806ZM39.0498 15.8344H43.7262C44.5685 15.8883 45.406 15.6715 46.1166 15.2157C46.3871 14.9828 46.5965 14.687 46.7263 14.3543C46.8561 14.0216 46.9025 13.6621 46.8612 13.3074C46.898 12.9451 46.8498 12.5793 46.7206 12.2389C46.5913 11.8986 46.3845 11.5932 46.1166 11.3469C45.3826 10.9047 44.5276 10.7064 43.6741 10.7803H39.0498V15.8344Z" fill="#464646"/>
<path fill-rule="evenodd" clip-rule="evenodd" d="M81.2346 19.3156H79.2464C78.9899 19.3262 78.7341 19.284 78.4945 19.1917C78.255 19.0994 78.037 18.9589 77.8539 18.7789C77.6726 18.6009 77.5305 18.387 77.4369 18.1507C77.3433 17.9145 77.3001 17.6612 77.3103 17.4073V9.39384C77.3422 9.02402 77.2845 8.65194 77.1418 8.30929C76.9992 7.96664 76.776 7.66357 76.4911 7.42589C75.9596 7.02406 75.3104 6.80918 74.6444 6.81464C73.9867 6.80428 73.3454 7.02003 72.8274 7.42589C72.5486 7.66743 72.331 7.97176 72.1924 8.31387C72.0539 8.65598 71.9985 9.02611 72.0307 9.39384V19.3156H68.0542V10.1765C68.0542 7.6371 68.7269 5.93502 70.0722 5.07032C71.4114 4.21559 72.9532 3.73199 74.5401 3.6689C76.1633 3.65779 77.7564 4.10753 79.1347 4.96596C80.5346 5.82321 81.2421 7.56007 81.2421 10.184L81.2346 19.3156Z" fill="#464646"/>
<path fill-rule="evenodd" clip-rule="evenodd" d="M64.3984 4.72728C63.3037 3.98184 61.658 3.65385 59.4687 3.65385C57.8575 3.54904 56.2598 4.00749 54.9487 4.95091C54.4976 5.2991 54.1199 5.73332 53.8375 6.22847C53.555 6.72363 53.3733 7.2699 53.303 7.83574H57.2348C57.3229 7.63233 57.4525 7.44963 57.6154 7.29942C57.7783 7.14921 57.9708 7.03481 58.1805 6.96358C58.6607 6.80522 59.1643 6.7296 59.6698 6.73995C60.2348 6.74724 60.7961 6.83253 61.3378 6.9934C61.5989 7.03337 61.8362 7.1677 62.005 7.37099C62.1737 7.57428 62.2623 7.83244 62.2538 8.09664C62.2538 8.84207 61.39 9.33406 59.6698 9.58751C59.3546 9.61708 59.0414 9.66436 58.7315 9.72914C58.4865 9.77992 58.2371 9.80737 57.9869 9.81114C56.6889 9.97891 55.4475 10.4459 54.3604 11.1753C53.37 11.8536 52.8711 12.9792 52.8711 14.567C52.8711 16.1548 53.3998 17.4742 54.4572 18.2122C55.5528 18.96 56.8548 19.3457 58.1805 19.3154C59.7843 19.4319 61.3859 19.0603 62.775 18.2495C62.8506 18.4658 62.9669 18.6657 63.1176 18.8384C63.2718 19.0104 63.4616 19.1469 63.6737 19.2383C63.8859 19.3297 64.1154 19.3738 64.3462 19.3676H66.1036V7.89537C66.1243 7.26358 65.9774 6.63759 65.6778 6.0811C65.3783 5.52461 64.9368 5.05749 64.3984 4.72728ZM62.2835 12.8674C62.3087 13.3249 62.2382 13.7826 62.0767 14.2113C61.9151 14.64 61.666 15.0303 61.3453 15.3572C60.9951 15.6704 60.5866 15.9113 60.1431 16.0661C59.6997 16.2209 59.2301 16.2865 58.7613 16.2591C58.2282 16.2863 57.7021 16.1283 57.272 15.8119C57.0949 15.6347 56.9565 15.4226 56.8655 15.1891C56.7745 14.9555 56.7329 14.7056 56.7433 14.4552C56.7547 14.0078 56.9 13.5742 57.1603 13.2103C57.6005 12.8404 58.1247 12.5844 58.6869 12.4649L59.9974 12.1816C60.7837 12.0148 61.55 11.7649 62.2835 11.4362V12.8674Z" fill="#464646"/>
<path fill-rule="evenodd" clip-rule="evenodd" d="M87.043 4.39181V9.60985L91.7343 3.64638H96.3735L91.1609 10.0944L96.4554 19.3005H91.8162L89.1206 14.2465C88.5621 13.2401 88.0855 12.8078 87.6759 12.9569C87.2664 13.1059 87.0728 13.337 87.0728 13.6277V19.3005H83.1782V0.0161133H85.1665C85.6573 0.0217099 86.1269 0.217362 86.4767 0.562029C86.8266 0.906696 87.0295 1.3736 87.043 1.86479V4.39181Z" fill="#464646"/>
</svg>
