<svg width="20" height="20" viewBox="0 0 20 20" fill="none" xmlns="http://www.w3.org/2000/svg">
<path d="M9.99999 17C10.946 17 11.81 16.897 12.598 16.719L10.841 14.962C10.568 14.983 10.291 15 9.99999 15C4.64899 15 2.57599 11.154 2.07399 9.99997C2.27799 9.52997 2.74799 8.61897 3.58199 7.70297L2.18399 6.30497C0.645994 7.97197 0.0629941 9.65097 0.0519941 9.68397C-0.0170059 9.88897 -0.0170059 10.112 0.0519941 10.317C0.0729941 10.383 2.36699 17 9.99999 17ZM9.99999 2.99997C8.16299 2.99997 6.65399 3.39597 5.39599 3.98097L1.70699 0.292969L0.292994 1.70697L18.293 19.707L19.707 18.293L16.388 14.974C19.002 13.023 19.935 10.359 19.949 10.317C20.018 10.112 20.018 9.88897 19.949 9.68397C19.927 9.61697 17.633 2.99997 9.99999 2.99997ZM14.972 13.558L12.692 11.278C12.882 10.888 13 10.459 13 9.99997C13 8.35897 11.641 6.99997 9.99999 6.99997C9.54099 6.99997 9.11199 7.11797 8.72299 7.30897L6.91499 5.50097C7.79599 5.19297 8.81399 4.99997 9.99999 4.99997C15.351 4.99997 17.424 8.84597 17.926 9.99997C17.624 10.692 16.76 12.342 14.972 13.558Z" fill="#B6BEC8"/>
</svg>
